<?xml version="1.0" encoding="UTF-8" standalone="no"?>
<!DOCTYPE svg PUBLIC "-//W3C//DTD SVG 1.1//EN" "http://www.w3.org/Graphics/SVG/1.1/DTD/svg11.dtd">
<svg width="100%" height="100%" viewBox="0 0 327 254" version="1.1" xmlns="http://www.w3.org/2000/svg" xmlns:xlink="http://www.w3.org/1999/xlink" xml:space="preserve" style="fill-rule:evenodd;clip-rule:evenodd;stroke-linejoin:round;stroke-miterlimit:1.41421;">
    <g transform="matrix(1,0,0,1,-93,-129)">
        <path d="M368,181L346,181L346,219L373,219L373,256L346,256L346,383L306,383L306,256L206,256L206,383L166,383L166,256L139,256L139,219L166,219L166,181L145,181L93,129C201.17,145.671 310.145,146.185 420,129L368,181ZM306,181L268,181L268,219L306,219L306,181ZM206,181L206,219L243,219L243,181L206,181Z" style="fill:white;"/>
    </g>
</svg>
